{"title":"Anne of the Thousand Days (1969) Richard Burton (opt.SWESUBS)","uid":4308177,"size":726102047,"categoryP":"video","categoryS":"movies","magnet":"?xt=urn:btih:e95b227dd16fa9f6e9f1521bcd7a4d4ca348faca&amp;dn=Anne+of+the+Thousand+Days+%281969%29+Richard+Burton+%28opt.SWESUBS%29&amp;tr=udp%3A%2F%2Ftracker.openbittorrent.com%3A80&amp;tr=udp%3A%2F%2Fopen.demonii.com%3A1337&amp;tr=udp%3A%2F%2Ftracker.coppersurfer.tk%3A6969&amp;tr=udp%3A%2F%2Fexodus.desync.com%3A6969","seeders":1,"leechers":1,"uploader":"Kuthumi","files":-1,"time":1216668925,"description":"aka Anne of a Thousand Days (1969) &lt;a href=&quot;\nhttp://www.imdb.com/title/tt0064030/&quot; rel=&quot;nofollow&quot; target=&quot;_NEW&quot;&gt;\nhttp://www.imdb.com/title/tt0064030/&lt;/a&gt;\n\nColor, widescreen, stereo\n\nOptional Swedish subtitles in separate idx/sub files.\n\nBurton was born to play Henry VIII. If you have seen this Oscar-winning film from a TV channel, it has probably been edited to pieces in differenet pan-an-scan versions. Here, you will find the original extreme widescreen untouched, made from the 70 mm. original.\n\nMy new ripping procedure now produces decent quality for such a long film compressed into just 700 MiB.\n\nDVDrip 2-pass, XviD\nWidescreen 704x368, stereo sound AC3.\nBurn tested, runs well in both my standalone DivX players.\n\nFormat/Info                      : Audio Video Interleave\nFile size                        : 691 MiB\nDuration                         : 2h 19mn\nOveral bit rate                  : 693 Kbps\nVideo\nFormat                           : MPEG-4 Visual\nFormat profile                   : Streaming Video@L1\nFormat settings, BVOP            : Yes\nFormat settings, QPel            : No\nFormat settings, GMC             : No warppoints\nFormat settings, Matrix          : Default\nMuxing mode                      : Packet Bitstream\nCodec ID                         : XVID\nCodec ID/Hint                    : XviD\nDuration                         : 2h 19mn\nBit rate                         : 556 Kbps\nWidth                            : 704 pixels\nHeight                           : 368 pixels\nDisplay aspect ratio             : 1.913\nFrame rate                       : 25.000 fps\nResolution                       : 8 bits\nColorimetry                      : 4:2:0\nScan type                        : Progressive\nBits/(Pixel*Frame)               : 0.086\nStream size                      : 554 MiB\nWriting library                  : XviD 1.2.0.dev47 (UTC 2006-11-01)\n\nAudio\nFormat                           : MPEG Audio\nFormat version                   : Version 1\nFormat profile                   : Layer 3\nCodec ID                         : 55\nCodec ID/Hint                    : MP3\nDuration                         : 2h 19mn\nBit rate mode                    : Constant\nBit rate                         : 128 Kbps\nMinimum bit rate                 : 128 Kbps\nChannel(s)                       : 2 channels\nSampling rate                    : 48.0 KHz\nResolution                       : 16 bits\nStream size                      : 128 MiB\nWriting library                  : LAME3.97 \nEncoding settings                : CBR\n","torrent":{"xt":"urn:btih:e95b227dd16fa9f6e9f1521bcd7a4d4ca348faca","amp;dn":"Anne+of+the+Thousand+Days+%281969%29+Richard+Burton+%28opt.SWESUBS%29","amp;tr":["udp%3A%2F%2Ftracker.openbittorrent.com%3A80","udp%3A%2F%2Fopen.demonii.com%3A1337","udp%3A%2F%2Ftracker.coppersurfer.tk%3A6969","udp%3A%2F%2Fexodus.desync.com%3A6969"],"infoHash":"e95b227dd16fa9f6e9f1521bcd7a4d4ca348faca","infoHashBuffer":{"type":"Buffer","data":[233,91,34,125,209,111,169,246,233,241,82,27,205,122,77,76,163,72,250,202]},"announce":[],"urlList":[]}}